<mxfile host="app.diagrams.net" agent="Mozilla/5.0 (Windows NT 10.0; Win64; x64) AppleWebKit/537.36 (KHTML, like Gecko) Chrome/131.0.0.0 Safari/537.36" version="26.0.5">
  <diagram name="Page-1" id="uJoerDX6KOsWPnAusNM7">
    <mxGraphModel dx="2206" dy="605" grid="1" gridSize="10" guides="1" tooltips="1" connect="1" arrows="1" fold="1" page="1" pageScale="1" pageWidth="827" pageHeight="1169" math="0" shadow="0">
      <root>
        <mxCell id="0" />
        <mxCell id="1" parent="0" />
        <mxCell id="PKVaJ8mTQ42ZdOeIIyP1-2" value="" style="whiteSpace=wrap;html=1;aspect=fixed;" vertex="1" parent="1">
          <mxGeometry x="-70" y="56" width="2174" height="2174" as="geometry" />
        </mxCell>
        <mxCell id="PKVaJ8mTQ42ZdOeIIyP1-3" value="&lt;font style=&quot;font-size: 36px;&quot;&gt;&lt;b&gt;Platform Youdemy&lt;/b&gt;&lt;/font&gt;" style="text;html=1;align=center;verticalAlign=middle;whiteSpace=wrap;rounded=0;" vertex="1" parent="1">
          <mxGeometry x="817" y="100" width="400" height="30" as="geometry" />
        </mxCell>
        <mxCell id="PKVaJ8mTQ42ZdOeIIyP1-4" value="Visiteur" style="shape=umlActor;verticalLabelPosition=bottom;verticalAlign=top;html=1;outlineConnect=0;" vertex="1" parent="1">
          <mxGeometry x="-320" y="290" width="70" height="120" as="geometry" />
        </mxCell>
        <mxCell id="PKVaJ8mTQ42ZdOeIIyP1-5" value="acceder au catalogue" style="ellipse;whiteSpace=wrap;html=1;" vertex="1" parent="1">
          <mxGeometry y="180" width="120" height="80" as="geometry" />
        </mxCell>
        <mxCell id="PKVaJ8mTQ42ZdOeIIyP1-6" value="s&#39;inscrir" style="ellipse;whiteSpace=wrap;html=1;" vertex="1" parent="1">
          <mxGeometry y="440" width="120" height="80" as="geometry" />
        </mxCell>
        <mxCell id="PKVaJ8mTQ42ZdOeIIyP1-7" value="rechercher les cours" style="ellipse;whiteSpace=wrap;html=1;" vertex="1" parent="1">
          <mxGeometry y="310" width="120" height="80" as="geometry" />
        </mxCell>
        <mxCell id="PKVaJ8mTQ42ZdOeIIyP1-9" value="" style="endArrow=none;html=1;rounded=0;exitX=0.077;exitY=0.784;exitDx=0;exitDy=0;exitPerimeter=0;entryX=0.5;entryY=0.5;entryDx=0;entryDy=0;entryPerimeter=0;" edge="1" parent="1" source="PKVaJ8mTQ42ZdOeIIyP1-5" target="PKVaJ8mTQ42ZdOeIIyP1-4">
          <mxGeometry width="50" height="50" relative="1" as="geometry">
            <mxPoint x="260" y="430" as="sourcePoint" />
            <mxPoint x="310" y="380" as="targetPoint" />
          </mxGeometry>
        </mxCell>
        <mxCell id="PKVaJ8mTQ42ZdOeIIyP1-11" value="" style="endArrow=none;html=1;rounded=0;" edge="1" parent="1" source="PKVaJ8mTQ42ZdOeIIyP1-7">
          <mxGeometry width="50" height="50" relative="1" as="geometry">
            <mxPoint x="19" y="253" as="sourcePoint" />
            <mxPoint x="-280" y="350" as="targetPoint" />
          </mxGeometry>
        </mxCell>
        <mxCell id="PKVaJ8mTQ42ZdOeIIyP1-12" value="" style="endArrow=none;html=1;rounded=0;entryX=0.5;entryY=0.5;entryDx=0;entryDy=0;entryPerimeter=0;" edge="1" parent="1" source="PKVaJ8mTQ42ZdOeIIyP1-6" target="PKVaJ8mTQ42ZdOeIIyP1-4">
          <mxGeometry width="50" height="50" relative="1" as="geometry">
            <mxPoint x="10" y="360" as="sourcePoint" />
            <mxPoint x="-270" y="360" as="targetPoint" />
          </mxGeometry>
        </mxCell>
        <mxCell id="PKVaJ8mTQ42ZdOeIIyP1-16" value="etudient" style="shape=umlActor;verticalLabelPosition=bottom;verticalAlign=top;html=1;outlineConnect=0;" vertex="1" parent="1">
          <mxGeometry x="-320" y="710" width="70" height="120" as="geometry" />
        </mxCell>
        <mxCell id="PKVaJ8mTQ42ZdOeIIyP1-17" value="consulter les details de cours" style="ellipse;whiteSpace=wrap;html=1;" vertex="1" parent="1">
          <mxGeometry y="585" width="120" height="80" as="geometry" />
        </mxCell>
        <mxCell id="PKVaJ8mTQ42ZdOeIIyP1-18" value="s&#39;inscrir a un cours" style="ellipse;whiteSpace=wrap;html=1;" vertex="1" parent="1">
          <mxGeometry y="730" width="120" height="80" as="geometry" />
        </mxCell>
        <mxCell id="PKVaJ8mTQ42ZdOeIIyP1-19" value="accéder a mes cours" style="ellipse;whiteSpace=wrap;html=1;" vertex="1" parent="1">
          <mxGeometry y="880" width="120" height="80" as="geometry" />
        </mxCell>
        <mxCell id="PKVaJ8mTQ42ZdOeIIyP1-20" value="" style="endArrow=none;html=1;rounded=0;entryX=0.5;entryY=0.5;entryDx=0;entryDy=0;entryPerimeter=0;exitX=0.059;exitY=0.695;exitDx=0;exitDy=0;exitPerimeter=0;" edge="1" parent="1" source="PKVaJ8mTQ42ZdOeIIyP1-17" target="PKVaJ8mTQ42ZdOeIIyP1-16">
          <mxGeometry width="50" height="50" relative="1" as="geometry">
            <mxPoint x="13" y="870" as="sourcePoint" />
            <mxPoint x="-280" y="760" as="targetPoint" />
          </mxGeometry>
        </mxCell>
        <mxCell id="PKVaJ8mTQ42ZdOeIIyP1-21" value="" style="endArrow=none;html=1;rounded=0;exitX=0;exitY=0.5;exitDx=0;exitDy=0;entryX=0.5;entryY=0.5;entryDx=0;entryDy=0;entryPerimeter=0;" edge="1" parent="1" source="PKVaJ8mTQ42ZdOeIIyP1-18" target="PKVaJ8mTQ42ZdOeIIyP1-16">
          <mxGeometry width="50" height="50" relative="1" as="geometry">
            <mxPoint x="17" y="651" as="sourcePoint" />
            <mxPoint x="-280" y="770" as="targetPoint" />
          </mxGeometry>
        </mxCell>
        <mxCell id="PKVaJ8mTQ42ZdOeIIyP1-22" value="" style="endArrow=none;html=1;rounded=0;entryX=0.5;entryY=0.5;entryDx=0;entryDy=0;entryPerimeter=0;" edge="1" parent="1" source="PKVaJ8mTQ42ZdOeIIyP1-19" target="PKVaJ8mTQ42ZdOeIIyP1-16">
          <mxGeometry width="50" height="50" relative="1" as="geometry">
            <mxPoint x="10" y="780" as="sourcePoint" />
            <mxPoint x="-275" y="780" as="targetPoint" />
          </mxGeometry>
        </mxCell>
        <mxCell id="PKVaJ8mTQ42ZdOeIIyP1-23" value="" style="endArrow=none;html=1;rounded=0;entryX=0.5;entryY=0.5;entryDx=0;entryDy=0;entryPerimeter=0;exitX=0.042;exitY=0.711;exitDx=0;exitDy=0;exitPerimeter=0;" edge="1" parent="1" source="PKVaJ8mTQ42ZdOeIIyP1-7" target="PKVaJ8mTQ42ZdOeIIyP1-16">
          <mxGeometry width="50" height="50" relative="1" as="geometry">
            <mxPoint x="17" y="651" as="sourcePoint" />
            <mxPoint x="-275" y="780" as="targetPoint" />
          </mxGeometry>
        </mxCell>
        <mxCell id="PKVaJ8mTQ42ZdOeIIyP1-24" value="" style="endArrow=none;html=1;rounded=0;entryX=0.5;entryY=0.5;entryDx=0;entryDy=0;entryPerimeter=0;exitX=0.042;exitY=0.711;exitDx=0;exitDy=0;exitPerimeter=0;" edge="1" parent="1" target="PKVaJ8mTQ42ZdOeIIyP1-16">
          <mxGeometry width="50" height="50" relative="1" as="geometry">
            <mxPoint x="15" y="377" as="sourcePoint" />
            <mxPoint x="-275" y="780" as="targetPoint" />
          </mxGeometry>
        </mxCell>
        <mxCell id="PKVaJ8mTQ42ZdOeIIyP1-25" value="&lt;span style=&quot;box-sizing: border-box; border: 0px solid; --tw-border-spacing-x: 0; --tw-border-spacing-y: 0; --tw-translate-x: 0; --tw-translate-y: 0; --tw-rotate: 0; --tw-skew-x: 0; --tw-skew-y: 0; --tw-scale-x: 1; --tw-scale-y: 1; --tw-pan-x: ; --tw-pan-y: ; --tw-pinch-zoom: ; --tw-scroll-snap-strictness: proximity; --tw-gradient-from-position: ; --tw-gradient-via-position: ; --tw-gradient-to-position: ; --tw-ordinal: ; --tw-slashed-zero: ; --tw-numeric-figure: ; --tw-numeric-spacing: ; --tw-numeric-fraction: ; --tw-ring-inset: ; --tw-ring-offset-width: 0px; --tw-ring-offset-color: light-dark(#fff, #000000); --tw-ring-color: light-dark(rgba(59,130,246,.5), #4c89ec); --tw-ring-offset-shadow: 0 0 #0000; --tw-ring-shadow: 0 0 #0000; --tw-shadow: 0 0 #0000; --tw-shadow-colored: 0 0 #0000; --tw-blur: ; --tw-brightness: ; --tw-contrast: ; --tw-grayscale: ; --tw-hue-rotate: ; --tw-invert: ; --tw-saturate: ; --tw-sepia: ; --tw-drop-shadow: ; --tw-backdrop-blur: ; --tw-backdrop-brightness: ; --tw-backdrop-contrast: ; --tw-backdrop-grayscale: ; --tw-backdrop-hue-rotate: ; --tw-backdrop-invert: ; --tw-backdrop-opacity: ; --tw-backdrop-saturate: ; --tw-backdrop-sepia: ; --tw-contain-size: ; --tw-contain-layout: ; --tw-contain-paint: ; --tw-contain-style: ; font-family: &amp;quot;Nunito Sans&amp;quot;, sans-serif; text-align: start; white-space: pre-wrap; background-color: rgb(255, 255, 255);&quot;&gt;&lt;font style=&quot;font-size: 12px;&quot;&gt;Enseignant&lt;/font&gt;&lt;/span&gt;" style="shape=umlActor;verticalLabelPosition=bottom;verticalAlign=top;html=1;outlineConnect=0;" vertex="1" parent="1">
          <mxGeometry x="-320" y="1130" width="70" height="120" as="geometry" />
        </mxCell>
        <mxCell id="PKVaJ8mTQ42ZdOeIIyP1-26" value="ajoute nouveaux cours" style="ellipse;whiteSpace=wrap;html=1;" vertex="1" parent="1">
          <mxGeometry y="1040" width="120" height="80" as="geometry" />
        </mxCell>
        <mxCell id="PKVaJ8mTQ42ZdOeIIyP1-27" value="accéder au statistics" style="ellipse;whiteSpace=wrap;html=1;" vertex="1" parent="1">
          <mxGeometry y="1280" width="120" height="80" as="geometry" />
        </mxCell>
        <mxCell id="PKVaJ8mTQ42ZdOeIIyP1-28" value="gestion des cours" style="ellipse;whiteSpace=wrap;html=1;" vertex="1" parent="1">
          <mxGeometry y="1160" width="120" height="80" as="geometry" />
        </mxCell>
        <mxCell id="PKVaJ8mTQ42ZdOeIIyP1-30" value="" style="endArrow=none;html=1;rounded=0;entryX=0.5;entryY=0.5;entryDx=0;entryDy=0;entryPerimeter=0;exitX=0.073;exitY=0.731;exitDx=0;exitDy=0;exitPerimeter=0;" edge="1" parent="1" source="PKVaJ8mTQ42ZdOeIIyP1-26" target="PKVaJ8mTQ42ZdOeIIyP1-25">
          <mxGeometry width="50" height="50" relative="1" as="geometry">
            <mxPoint x="15" y="1318" as="sourcePoint" />
            <mxPoint x="-280" y="1190" as="targetPoint" />
          </mxGeometry>
        </mxCell>
        <mxCell id="PKVaJ8mTQ42ZdOeIIyP1-31" value="" style="endArrow=none;html=1;rounded=0;entryX=0.5;entryY=0.5;entryDx=0;entryDy=0;entryPerimeter=0;exitX=0;exitY=0.5;exitDx=0;exitDy=0;" edge="1" parent="1" source="PKVaJ8mTQ42ZdOeIIyP1-28" target="PKVaJ8mTQ42ZdOeIIyP1-25">
          <mxGeometry width="50" height="50" relative="1" as="geometry">
            <mxPoint x="15.05677980592327" y="1204.1302231605941" as="sourcePoint" />
            <mxPoint x="-270" y="1195.87" as="targetPoint" />
          </mxGeometry>
        </mxCell>
        <mxCell id="PKVaJ8mTQ42ZdOeIIyP1-32" value="" style="endArrow=none;html=1;rounded=0;entryX=0.5;entryY=0.5;entryDx=0;entryDy=0;entryPerimeter=0;exitX=0;exitY=0.5;exitDx=0;exitDy=0;" edge="1" parent="1" source="PKVaJ8mTQ42ZdOeIIyP1-27" target="PKVaJ8mTQ42ZdOeIIyP1-25">
          <mxGeometry width="50" height="50" relative="1" as="geometry">
            <mxPoint x="10" y="1210" as="sourcePoint" />
            <mxPoint x="-280" y="1200" as="targetPoint" />
          </mxGeometry>
        </mxCell>
        <mxCell id="PKVaJ8mTQ42ZdOeIIyP1-34" value="supprimer" style="ellipse;whiteSpace=wrap;html=1;" vertex="1" parent="1">
          <mxGeometry x="300" y="1170" width="100" height="70" as="geometry" />
        </mxCell>
        <mxCell id="PKVaJ8mTQ42ZdOeIIyP1-35" value="modifier" style="ellipse;whiteSpace=wrap;html=1;" vertex="1" parent="1">
          <mxGeometry x="300" y="1080" width="100" height="70" as="geometry" />
        </mxCell>
        <mxCell id="PKVaJ8mTQ42ZdOeIIyP1-36" value="consulter" style="ellipse;whiteSpace=wrap;html=1;" vertex="1" parent="1">
          <mxGeometry x="300" y="1270" width="100" height="70" as="geometry" />
        </mxCell>
        <mxCell id="PKVaJ8mTQ42ZdOeIIyP1-37" value="" style="endArrow=open;endSize=12;dashed=1;html=1;rounded=0;exitX=0.045;exitY=0.602;exitDx=0;exitDy=0;entryX=0.947;entryY=0.3;entryDx=0;entryDy=0;entryPerimeter=0;exitPerimeter=0;" edge="1" parent="1" source="PKVaJ8mTQ42ZdOeIIyP1-35" target="PKVaJ8mTQ42ZdOeIIyP1-28">
          <mxGeometry width="160" relative="1" as="geometry">
            <mxPoint x="130" y="1150" as="sourcePoint" />
            <mxPoint x="290" y="1150" as="targetPoint" />
          </mxGeometry>
        </mxCell>
        <mxCell id="PKVaJ8mTQ42ZdOeIIyP1-38" value="" style="endArrow=open;endSize=12;dashed=1;html=1;rounded=0;exitX=0;exitY=0.5;exitDx=0;exitDy=0;" edge="1" parent="1" source="PKVaJ8mTQ42ZdOeIIyP1-34" target="PKVaJ8mTQ42ZdOeIIyP1-28">
          <mxGeometry width="160" relative="1" as="geometry">
            <mxPoint x="315" y="1132" as="sourcePoint" />
            <mxPoint x="124" y="1194" as="targetPoint" />
          </mxGeometry>
        </mxCell>
        <mxCell id="PKVaJ8mTQ42ZdOeIIyP1-39" value="" style="endArrow=open;endSize=12;dashed=1;html=1;rounded=0;entryX=0.957;entryY=0.724;entryDx=0;entryDy=0;entryPerimeter=0;" edge="1" parent="1" source="PKVaJ8mTQ42ZdOeIIyP1-36" target="PKVaJ8mTQ42ZdOeIIyP1-28">
          <mxGeometry width="160" relative="1" as="geometry">
            <mxPoint x="325" y="1142" as="sourcePoint" />
            <mxPoint x="134" y="1204" as="targetPoint" />
          </mxGeometry>
        </mxCell>
        <mxCell id="PKVaJ8mTQ42ZdOeIIyP1-40" value="&amp;lt;&amp;lt;extend&amp;gt;&amp;gt;" style="text;html=1;align=center;verticalAlign=middle;whiteSpace=wrap;rounded=0;rotation=-20;" vertex="1" parent="1">
          <mxGeometry x="202.01" y="1130" width="50" height="20" as="geometry" />
        </mxCell>
        <mxCell id="PKVaJ8mTQ42ZdOeIIyP1-41" value="&amp;lt;&amp;lt;extend&amp;gt;&amp;gt;" style="text;html=1;align=center;verticalAlign=middle;whiteSpace=wrap;rounded=0;rotation=0;" vertex="1" parent="1">
          <mxGeometry x="212.01" y="1180" width="50" height="20" as="geometry" />
        </mxCell>
        <mxCell id="PKVaJ8mTQ42ZdOeIIyP1-42" value="&amp;lt;&amp;lt;extend&amp;gt;&amp;gt;" style="text;html=1;align=center;verticalAlign=middle;whiteSpace=wrap;rounded=0;rotation=15;" vertex="1" parent="1">
          <mxGeometry x="212.01" y="1240" width="50" height="20" as="geometry" />
        </mxCell>
        <mxCell id="PKVaJ8mTQ42ZdOeIIyP1-43" value="&lt;div style=&quot;text-align: start;&quot;&gt;&lt;span style=&quot;color: light-dark(rgb(0, 0, 0), rgb(255, 255, 255)); white-space: pre-wrap; background-color: rgb(255, 255, 255);&quot;&gt;&lt;font face=&quot;Nunito Sans, sans-serif&quot;&gt;Admin&lt;/font&gt;&lt;/span&gt;&lt;/div&gt;" style="shape=umlActor;verticalLabelPosition=bottom;verticalAlign=top;html=1;outlineConnect=0;" vertex="1" parent="1">
          <mxGeometry x="-320" y="1710" width="70" height="120" as="geometry" />
        </mxCell>
        <mxCell id="PKVaJ8mTQ42ZdOeIIyP1-44" value="valide les comptes" style="ellipse;whiteSpace=wrap;html=1;" vertex="1" parent="1">
          <mxGeometry y="1520" width="120" height="80" as="geometry" />
        </mxCell>
        <mxCell id="PKVaJ8mTQ42ZdOeIIyP1-45" value="gérer les utilisateurs" style="ellipse;whiteSpace=wrap;html=1;" vertex="1" parent="1">
          <mxGeometry y="1630" width="120" height="80" as="geometry" />
        </mxCell>
        <mxCell id="PKVaJ8mTQ42ZdOeIIyP1-46" value="gérer les categoeies" style="ellipse;whiteSpace=wrap;html=1;" vertex="1" parent="1">
          <mxGeometry y="1850" width="120" height="80" as="geometry" />
        </mxCell>
        <mxCell id="PKVaJ8mTQ42ZdOeIIyP1-47" value="gérer les tags" style="ellipse;whiteSpace=wrap;html=1;" vertex="1" parent="1">
          <mxGeometry y="1960" width="120" height="80" as="geometry" />
        </mxCell>
        <mxCell id="PKVaJ8mTQ42ZdOeIIyP1-48" value="accéder au statistics" style="ellipse;whiteSpace=wrap;html=1;" vertex="1" parent="1">
          <mxGeometry y="2070" width="120" height="80" as="geometry" />
        </mxCell>
        <mxCell id="PKVaJ8mTQ42ZdOeIIyP1-49" value="" style="endArrow=none;html=1;rounded=0;exitX=0.022;exitY=0.606;exitDx=0;exitDy=0;exitPerimeter=0;entryX=0.5;entryY=0.5;entryDx=0;entryDy=0;entryPerimeter=0;" edge="1" parent="1" source="PKVaJ8mTQ42ZdOeIIyP1-44" target="PKVaJ8mTQ42ZdOeIIyP1-43">
          <mxGeometry width="50" height="50" relative="1" as="geometry">
            <mxPoint x="-5" y="1640" as="sourcePoint" />
            <mxPoint x="-290" y="1510" as="targetPoint" />
          </mxGeometry>
        </mxCell>
        <mxCell id="PKVaJ8mTQ42ZdOeIIyP1-50" value="" style="endArrow=none;html=1;rounded=0;entryX=0.5;entryY=0.5;entryDx=0;entryDy=0;entryPerimeter=0;exitX=0.008;exitY=0.644;exitDx=0;exitDy=0;exitPerimeter=0;" edge="1" parent="1" source="PKVaJ8mTQ42ZdOeIIyP1-45" target="PKVaJ8mTQ42ZdOeIIyP1-43">
          <mxGeometry width="50" height="50" relative="1" as="geometry">
            <mxPoint y="1683" as="sourcePoint" />
            <mxPoint x="-275" y="1780" as="targetPoint" />
          </mxGeometry>
        </mxCell>
        <mxCell id="PKVaJ8mTQ42ZdOeIIyP1-51" value="" style="endArrow=none;html=1;rounded=0;entryX=0.5;entryY=0.5;entryDx=0;entryDy=0;entryPerimeter=0;" edge="1" parent="1" source="PKVaJ8mTQ42ZdOeIIyP1-46" target="PKVaJ8mTQ42ZdOeIIyP1-43">
          <mxGeometry width="50" height="50" relative="1" as="geometry">
            <mxPoint x="17" y="1693" as="sourcePoint" />
            <mxPoint x="-275" y="1780" as="targetPoint" />
          </mxGeometry>
        </mxCell>
        <mxCell id="PKVaJ8mTQ42ZdOeIIyP1-52" value="" style="endArrow=none;html=1;rounded=0;entryX=0.5;entryY=0.5;entryDx=0;entryDy=0;entryPerimeter=0;exitX=0.076;exitY=0.265;exitDx=0;exitDy=0;exitPerimeter=0;" edge="1" parent="1" source="PKVaJ8mTQ42ZdOeIIyP1-47" target="PKVaJ8mTQ42ZdOeIIyP1-43">
          <mxGeometry width="50" height="50" relative="1" as="geometry">
            <mxPoint x="17" y="1881" as="sourcePoint" />
            <mxPoint x="-275" y="1780" as="targetPoint" />
          </mxGeometry>
        </mxCell>
        <mxCell id="PKVaJ8mTQ42ZdOeIIyP1-53" value="" style="endArrow=none;html=1;rounded=0;entryX=0.5;entryY=0.5;entryDx=0;entryDy=0;entryPerimeter=0;exitX=0.09;exitY=0.202;exitDx=0;exitDy=0;exitPerimeter=0;" edge="1" parent="1" source="PKVaJ8mTQ42ZdOeIIyP1-48" target="PKVaJ8mTQ42ZdOeIIyP1-43">
          <mxGeometry width="50" height="50" relative="1" as="geometry">
            <mxPoint x="27" y="1891" as="sourcePoint" />
            <mxPoint x="-265" y="1790" as="targetPoint" />
          </mxGeometry>
        </mxCell>
        <mxCell id="PKVaJ8mTQ42ZdOeIIyP1-54" value="activer" style="ellipse;whiteSpace=wrap;html=1;" vertex="1" parent="1">
          <mxGeometry x="300" y="1560" width="100" height="70" as="geometry" />
        </mxCell>
        <mxCell id="PKVaJ8mTQ42ZdOeIIyP1-55" value="suspendre" style="ellipse;whiteSpace=wrap;html=1;" vertex="1" parent="1">
          <mxGeometry x="300" y="1660" width="100" height="70" as="geometry" />
        </mxCell>
        <mxCell id="PKVaJ8mTQ42ZdOeIIyP1-56" value="supprimer" style="ellipse;whiteSpace=wrap;html=1;" vertex="1" parent="1">
          <mxGeometry x="300" y="1754" width="100" height="70" as="geometry" />
        </mxCell>
        <mxCell id="PKVaJ8mTQ42ZdOeIIyP1-57" value="" style="endArrow=open;endSize=12;dashed=1;html=1;rounded=0;exitX=0;exitY=0.5;exitDx=0;exitDy=0;" edge="1" parent="1" source="PKVaJ8mTQ42ZdOeIIyP1-54" target="PKVaJ8mTQ42ZdOeIIyP1-45">
          <mxGeometry width="160" relative="1" as="geometry">
            <mxPoint x="300" y="1581" as="sourcePoint" />
            <mxPoint x="109" y="1510" as="targetPoint" />
          </mxGeometry>
        </mxCell>
        <mxCell id="PKVaJ8mTQ42ZdOeIIyP1-58" value="" style="endArrow=open;endSize=12;dashed=1;html=1;rounded=0;exitX=0.053;exitY=0.411;exitDx=0;exitDy=0;exitPerimeter=0;entryX=0.984;entryY=0.586;entryDx=0;entryDy=0;entryPerimeter=0;" edge="1" parent="1" target="PKVaJ8mTQ42ZdOeIIyP1-45">
          <mxGeometry width="160" relative="1" as="geometry">
            <mxPoint x="300" y="1691" as="sourcePoint" />
            <mxPoint x="109" y="1754" as="targetPoint" />
          </mxGeometry>
        </mxCell>
        <mxCell id="PKVaJ8mTQ42ZdOeIIyP1-59" value="" style="endArrow=open;endSize=12;dashed=1;html=1;rounded=0;exitX=0.047;exitY=0.265;exitDx=0;exitDy=0;exitPerimeter=0;entryX=1;entryY=1;entryDx=0;entryDy=0;" edge="1" parent="1" source="PKVaJ8mTQ42ZdOeIIyP1-56" target="PKVaJ8mTQ42ZdOeIIyP1-45">
          <mxGeometry width="160" relative="1" as="geometry">
            <mxPoint x="310" y="1701" as="sourcePoint" />
            <mxPoint x="128" y="1687" as="targetPoint" />
          </mxGeometry>
        </mxCell>
        <mxCell id="PKVaJ8mTQ42ZdOeIIyP1-60" value="&amp;lt;&amp;lt;extend&amp;gt;&amp;gt;" style="text;html=1;align=center;verticalAlign=middle;whiteSpace=wrap;rounded=0;rotation=-15;" vertex="1" parent="1">
          <mxGeometry x="190" y="1600" width="50" height="20" as="geometry" />
        </mxCell>
        <mxCell id="PKVaJ8mTQ42ZdOeIIyP1-61" value="&amp;lt;&amp;lt;extend&amp;gt;&amp;gt;" style="text;html=1;align=center;verticalAlign=middle;whiteSpace=wrap;rounded=0;rotation=0;" vertex="1" parent="1">
          <mxGeometry x="204.01" y="1666" width="50" height="20" as="geometry" />
        </mxCell>
        <mxCell id="PKVaJ8mTQ42ZdOeIIyP1-62" value="&amp;lt;&amp;lt;extend&amp;gt;&amp;gt;" style="text;html=1;align=center;verticalAlign=middle;whiteSpace=wrap;rounded=0;rotation=15;" vertex="1" parent="1">
          <mxGeometry x="202.01" y="1720" width="50" height="20" as="geometry" />
        </mxCell>
        <mxCell id="PKVaJ8mTQ42ZdOeIIyP1-63" value="ajouter" style="ellipse;whiteSpace=wrap;html=1;" vertex="1" parent="1">
          <mxGeometry x="230" y="1860" width="100" height="70" as="geometry" />
        </mxCell>
        <mxCell id="PKVaJ8mTQ42ZdOeIIyP1-64" value="supprimer" style="ellipse;whiteSpace=wrap;html=1;" vertex="1" parent="1">
          <mxGeometry x="230" y="2010" width="100" height="70" as="geometry" />
        </mxCell>
        <mxCell id="PKVaJ8mTQ42ZdOeIIyP1-67" value="" style="endArrow=open;endSize=12;dashed=1;html=1;rounded=0;exitX=0.047;exitY=0.265;exitDx=0;exitDy=0;exitPerimeter=0;entryX=0.984;entryY=0.43;entryDx=0;entryDy=0;entryPerimeter=0;" edge="1" parent="1" target="PKVaJ8mTQ42ZdOeIIyP1-46">
          <mxGeometry width="160" relative="1" as="geometry">
            <mxPoint x="230" y="1885" as="sourcePoint" />
            <mxPoint x="27" y="1810" as="targetPoint" />
          </mxGeometry>
        </mxCell>
        <mxCell id="PKVaJ8mTQ42ZdOeIIyP1-68" value="" style="endArrow=open;endSize=12;dashed=1;html=1;rounded=0;exitX=0.047;exitY=0.265;exitDx=0;exitDy=0;exitPerimeter=0;entryX=0.907;entryY=0.742;entryDx=0;entryDy=0;entryPerimeter=0;" edge="1" parent="1" target="PKVaJ8mTQ42ZdOeIIyP1-46">
          <mxGeometry width="160" relative="1" as="geometry">
            <mxPoint x="271" y="2011" as="sourcePoint" />
            <mxPoint x="159" y="2010" as="targetPoint" />
          </mxGeometry>
        </mxCell>
        <mxCell id="PKVaJ8mTQ42ZdOeIIyP1-69" value="" style="endArrow=open;endSize=12;dashed=1;html=1;rounded=0;entryX=0.926;entryY=0.302;entryDx=0;entryDy=0;entryPerimeter=0;" edge="1" parent="1" source="PKVaJ8mTQ42ZdOeIIyP1-63" target="PKVaJ8mTQ42ZdOeIIyP1-47">
          <mxGeometry width="160" relative="1" as="geometry">
            <mxPoint x="282" y="2070" as="sourcePoint" />
            <mxPoint x="120" y="1968" as="targetPoint" />
          </mxGeometry>
        </mxCell>
        <mxCell id="PKVaJ8mTQ42ZdOeIIyP1-70" value="" style="endArrow=open;endSize=12;dashed=1;html=1;rounded=0;entryX=0.926;entryY=0.302;entryDx=0;entryDy=0;entryPerimeter=0;" edge="1" parent="1" source="PKVaJ8mTQ42ZdOeIIyP1-64">
          <mxGeometry width="160" relative="1" as="geometry">
            <mxPoint x="250" y="1926" as="sourcePoint" />
            <mxPoint x="121" y="1994" as="targetPoint" />
          </mxGeometry>
        </mxCell>
        <mxCell id="PKVaJ8mTQ42ZdOeIIyP1-71" value="&amp;lt;&amp;lt;extend&amp;gt;&amp;gt;" style="text;html=1;align=center;verticalAlign=middle;whiteSpace=wrap;rounded=0;rotation=5;" vertex="1" parent="1">
          <mxGeometry x="154.01" y="1860" width="50" height="20" as="geometry" />
        </mxCell>
        <mxCell id="PKVaJ8mTQ42ZdOeIIyP1-72" value="&amp;lt;&amp;lt;extend&amp;gt;&amp;gt;" style="text;html=1;align=center;verticalAlign=middle;whiteSpace=wrap;rounded=0;rotation=30;" vertex="1" parent="1">
          <mxGeometry x="190" y="1950" width="50" height="20" as="geometry" />
        </mxCell>
        <mxCell id="PKVaJ8mTQ42ZdOeIIyP1-73" value="&amp;lt;&amp;lt;extend&amp;gt;&amp;gt;" style="text;html=1;align=center;verticalAlign=middle;whiteSpace=wrap;rounded=0;rotation=20;" vertex="1" parent="1">
          <mxGeometry x="162.01" y="1990" width="50" height="20" as="geometry" />
        </mxCell>
        <mxCell id="PKVaJ8mTQ42ZdOeIIyP1-74" value="&amp;lt;&amp;lt;extend&amp;gt;&amp;gt;" style="text;html=1;align=center;verticalAlign=middle;whiteSpace=wrap;rounded=0;rotation=-35;" vertex="1" parent="1">
          <mxGeometry x="160" y="1920" width="50" height="20" as="geometry" />
        </mxCell>
        <mxCell id="PKVaJ8mTQ42ZdOeIIyP1-75" value="Authentification" style="ellipse;whiteSpace=wrap;html=1;fillColor=#99FF99;" vertex="1" parent="1">
          <mxGeometry x="1380" y="1140" width="320" height="130" as="geometry" />
        </mxCell>
        <mxCell id="PKVaJ8mTQ42ZdOeIIyP1-76" value="" style="endArrow=open;endSize=12;dashed=1;html=1;rounded=0;edgeStyle=orthogonalEdgeStyle;exitX=1;exitY=0.5;exitDx=0;exitDy=0;" edge="1" parent="1" source="PKVaJ8mTQ42ZdOeIIyP1-5" target="PKVaJ8mTQ42ZdOeIIyP1-75">
          <mxGeometry width="160" relative="1" as="geometry">
            <mxPoint x="154.01" y="230.0040886699502" as="sourcePoint" />
            <mxPoint x="424.01" y="443.61" as="targetPoint" />
            <Array as="points">
              <mxPoint x="1570" y="220" />
            </Array>
          </mxGeometry>
        </mxCell>
        <mxCell id="PKVaJ8mTQ42ZdOeIIyP1-78" value="" style="endArrow=open;endSize=12;dashed=1;html=1;rounded=0;edgeStyle=orthogonalEdgeStyle;exitX=1;exitY=0.5;exitDx=0;exitDy=0;" edge="1" parent="1" target="PKVaJ8mTQ42ZdOeIIyP1-75">
          <mxGeometry width="160" relative="1" as="geometry">
            <mxPoint x="120" y="349" as="sourcePoint" />
            <mxPoint x="1520" y="1270" as="targetPoint" />
            <Array as="points">
              <mxPoint x="1550" y="349" />
            </Array>
          </mxGeometry>
        </mxCell>
        <mxCell id="PKVaJ8mTQ42ZdOeIIyP1-79" value="" style="endArrow=open;endSize=12;dashed=1;html=1;rounded=0;edgeStyle=orthogonalEdgeStyle;exitX=1;exitY=0.5;exitDx=0;exitDy=0;entryX=0.378;entryY=0.023;entryDx=0;entryDy=0;entryPerimeter=0;" edge="1" parent="1" target="PKVaJ8mTQ42ZdOeIIyP1-75">
          <mxGeometry width="160" relative="1" as="geometry">
            <mxPoint x="120" y="479" as="sourcePoint" />
            <mxPoint x="1550" y="1270" as="targetPoint" />
            <Array as="points">
              <mxPoint x="1501" y="479" />
            </Array>
          </mxGeometry>
        </mxCell>
        <mxCell id="PKVaJ8mTQ42ZdOeIIyP1-81" value="" style="endArrow=open;endSize=12;dashed=1;html=1;rounded=0;edgeStyle=orthogonalEdgeStyle;exitX=1;exitY=0.5;exitDx=0;exitDy=0;" edge="1" parent="1">
          <mxGeometry width="160" relative="1" as="geometry">
            <mxPoint x="120" y="630" as="sourcePoint" />
            <mxPoint x="1524" y="1140" as="targetPoint" />
            <Array as="points">
              <mxPoint x="1524" y="630" />
            </Array>
          </mxGeometry>
        </mxCell>
        <mxCell id="PKVaJ8mTQ42ZdOeIIyP1-82" value="" style="endArrow=open;endSize=12;dashed=1;html=1;rounded=0;edgeStyle=orthogonalEdgeStyle;exitX=1;exitY=0.5;exitDx=0;exitDy=0;entryX=0.5;entryY=0;entryDx=0;entryDy=0;" edge="1" parent="1" target="PKVaJ8mTQ42ZdOeIIyP1-75">
          <mxGeometry width="160" relative="1" as="geometry">
            <mxPoint x="120" y="770" as="sourcePoint" />
            <mxPoint x="1524" y="1280" as="targetPoint" />
            <Array as="points">
              <mxPoint x="1540" y="770" />
            </Array>
          </mxGeometry>
        </mxCell>
        <mxCell id="PKVaJ8mTQ42ZdOeIIyP1-83" value="" style="endArrow=open;endSize=12;dashed=1;html=1;rounded=0;edgeStyle=orthogonalEdgeStyle;exitX=1;exitY=0.5;exitDx=0;exitDy=0;entryX=0.5;entryY=0;entryDx=0;entryDy=0;" edge="1" parent="1" target="PKVaJ8mTQ42ZdOeIIyP1-75">
          <mxGeometry width="160" relative="1" as="geometry">
            <mxPoint x="120" y="920" as="sourcePoint" />
            <mxPoint x="1540" y="1290" as="targetPoint" />
            <Array as="points">
              <mxPoint x="1540" y="920" />
            </Array>
          </mxGeometry>
        </mxCell>
        <mxCell id="PKVaJ8mTQ42ZdOeIIyP1-84" value="" style="endArrow=open;endSize=12;dashed=1;html=1;rounded=0;edgeStyle=orthogonalEdgeStyle;exitX=1;exitY=0.5;exitDx=0;exitDy=0;entryX=0.096;entryY=0.228;entryDx=0;entryDy=0;entryPerimeter=0;" edge="1" parent="1" target="PKVaJ8mTQ42ZdOeIIyP1-75">
          <mxGeometry width="160" relative="1" as="geometry">
            <mxPoint x="120" y="1060" as="sourcePoint" />
            <mxPoint x="1540" y="1280" as="targetPoint" />
            <Array as="points">
              <mxPoint x="1310" y="1060" />
              <mxPoint x="1310" y="1170" />
            </Array>
          </mxGeometry>
        </mxCell>
        <mxCell id="PKVaJ8mTQ42ZdOeIIyP1-85" value="" style="endArrow=open;endSize=12;dashed=1;html=1;rounded=0;edgeStyle=orthogonalEdgeStyle;exitX=1;exitY=0;exitDx=0;exitDy=0;" edge="1" parent="1" source="PKVaJ8mTQ42ZdOeIIyP1-28">
          <mxGeometry width="160" relative="1" as="geometry">
            <mxPoint x="130" y="1190" as="sourcePoint" />
            <mxPoint x="1420" y="1170" as="targetPoint" />
            <Array as="points">
              <mxPoint x="102" y="1160" />
              <mxPoint x="1421" y="1160" />
            </Array>
          </mxGeometry>
        </mxCell>
        <mxCell id="PKVaJ8mTQ42ZdOeIIyP1-87" value="" style="endArrow=open;endSize=12;dashed=1;html=1;rounded=0;edgeStyle=orthogonalEdgeStyle;exitX=0.756;exitY=0.916;exitDx=0;exitDy=0;entryX=0;entryY=1;entryDx=0;entryDy=0;exitPerimeter=0;" edge="1" parent="1" source="PKVaJ8mTQ42ZdOeIIyP1-27" target="PKVaJ8mTQ42ZdOeIIyP1-75">
          <mxGeometry width="160" relative="1" as="geometry">
            <mxPoint x="100" y="1360" as="sourcePoint" />
            <mxPoint x="1391" y="1470" as="targetPoint" />
            <Array as="points">
              <mxPoint x="91" y="1360" />
              <mxPoint x="1426" y="1360" />
            </Array>
          </mxGeometry>
        </mxCell>
        <mxCell id="PKVaJ8mTQ42ZdOeIIyP1-88" value="" style="endArrow=open;endSize=12;dashed=1;html=1;rounded=0;edgeStyle=orthogonalEdgeStyle;exitX=1;exitY=0.5;exitDx=0;exitDy=0;" edge="1" parent="1" target="PKVaJ8mTQ42ZdOeIIyP1-75">
          <mxGeometry width="160" relative="1" as="geometry">
            <mxPoint x="110" y="1539" as="sourcePoint" />
            <mxPoint x="1570" y="1490" as="targetPoint" />
            <Array as="points">
              <mxPoint x="1540" y="1539" />
            </Array>
          </mxGeometry>
        </mxCell>
        <mxCell id="PKVaJ8mTQ42ZdOeIIyP1-89" value="" style="endArrow=open;endSize=12;dashed=1;html=1;rounded=0;edgeStyle=orthogonalEdgeStyle;exitX=1;exitY=0.5;exitDx=0;exitDy=0;entryX=0.545;entryY=1.009;entryDx=0;entryDy=0;entryPerimeter=0;" edge="1" parent="1" target="PKVaJ8mTQ42ZdOeIIyP1-75">
          <mxGeometry width="160" relative="1" as="geometry">
            <mxPoint x="120" y="1659.92" as="sourcePoint" />
            <mxPoint x="1550" y="1390.92" as="targetPoint" />
            <Array as="points">
              <mxPoint x="1550" y="1660" />
              <mxPoint x="1550" y="1271" />
            </Array>
          </mxGeometry>
        </mxCell>
        <mxCell id="PKVaJ8mTQ42ZdOeIIyP1-90" value="" style="endArrow=open;endSize=12;dashed=1;html=1;rounded=0;edgeStyle=orthogonalEdgeStyle;exitX=0.653;exitY=-0.029;exitDx=0;exitDy=0;entryX=0.381;entryY=0.986;entryDx=0;entryDy=0;entryPerimeter=0;exitPerimeter=0;" edge="1" parent="1" source="PKVaJ8mTQ42ZdOeIIyP1-46" target="PKVaJ8mTQ42ZdOeIIyP1-75">
          <mxGeometry width="160" relative="1" as="geometry">
            <mxPoint x="90" y="1850" as="sourcePoint" />
            <mxPoint x="1524" y="1461.08" as="targetPoint" />
            <Array as="points">
              <mxPoint x="78" y="1850" />
              <mxPoint x="1502" y="1850" />
            </Array>
          </mxGeometry>
        </mxCell>
        <mxCell id="PKVaJ8mTQ42ZdOeIIyP1-91" value="" style="endArrow=open;endSize=12;dashed=1;html=1;rounded=0;edgeStyle=orthogonalEdgeStyle;exitX=0.653;exitY=-0.029;exitDx=0;exitDy=0;exitPerimeter=0;entryX=1;entryY=1;entryDx=0;entryDy=0;" edge="1" parent="1" target="PKVaJ8mTQ42ZdOeIIyP1-75">
          <mxGeometry width="160" relative="1" as="geometry">
            <mxPoint x="120" y="1988" as="sourcePoint" />
            <mxPoint x="1544" y="1408" as="targetPoint" />
            <Array as="points" />
          </mxGeometry>
        </mxCell>
        <mxCell id="PKVaJ8mTQ42ZdOeIIyP1-92" value="" style="endArrow=open;endSize=12;dashed=1;html=1;rounded=0;edgeStyle=orthogonalEdgeStyle;exitX=0.653;exitY=-0.029;exitDx=0;exitDy=0;exitPerimeter=0;entryX=0.756;entryY=0.899;entryDx=0;entryDy=0;entryPerimeter=0;" edge="1" parent="1" target="PKVaJ8mTQ42ZdOeIIyP1-75">
          <mxGeometry width="160" relative="1" as="geometry">
            <mxPoint x="110" y="2138.27" as="sourcePoint" />
            <mxPoint x="1643" y="1401.27" as="targetPoint" />
            <Array as="points" />
          </mxGeometry>
        </mxCell>
        <mxCell id="PKVaJ8mTQ42ZdOeIIyP1-93" style="edgeStyle=orthogonalEdgeStyle;rounded=0;orthogonalLoop=1;jettySize=auto;html=1;exitX=0.5;exitY=1;exitDx=0;exitDy=0;" edge="1" parent="1" source="PKVaJ8mTQ42ZdOeIIyP1-3" target="PKVaJ8mTQ42ZdOeIIyP1-3">
          <mxGeometry relative="1" as="geometry" />
        </mxCell>
        <mxCell id="PKVaJ8mTQ42ZdOeIIyP1-94" value="&lt;font style=&quot;font-size: 14px;&quot;&gt;&amp;lt;&amp;lt;include&amp;gt;&amp;gt;&lt;/font&gt;" style="text;html=1;align=center;verticalAlign=middle;whiteSpace=wrap;rounded=0;rotation=0;" vertex="1" parent="1">
          <mxGeometry x="570" y="190" width="80" height="20" as="geometry" />
        </mxCell>
        <mxCell id="PKVaJ8mTQ42ZdOeIIyP1-95" value="&lt;font style=&quot;font-size: 14px;&quot;&gt;&amp;lt;&amp;lt;include&amp;gt;&amp;gt;&lt;/font&gt;" style="text;html=1;align=center;verticalAlign=middle;whiteSpace=wrap;rounded=0;rotation=0;" vertex="1" parent="1">
          <mxGeometry x="840" y="330" width="80" height="20" as="geometry" />
        </mxCell>
        <mxCell id="PKVaJ8mTQ42ZdOeIIyP1-96" value="&lt;font style=&quot;font-size: 14px;&quot;&gt;&amp;lt;&amp;lt;include&amp;gt;&amp;gt;&lt;/font&gt;" style="text;html=1;align=center;verticalAlign=middle;whiteSpace=wrap;rounded=0;rotation=0;" vertex="1" parent="1">
          <mxGeometry x="860" y="460" width="80" height="20" as="geometry" />
        </mxCell>
        <mxCell id="PKVaJ8mTQ42ZdOeIIyP1-97" value="&lt;font style=&quot;font-size: 14px;&quot;&gt;&amp;lt;&amp;lt;include&amp;gt;&amp;gt;&lt;/font&gt;" style="text;html=1;align=center;verticalAlign=middle;whiteSpace=wrap;rounded=0;rotation=0;" vertex="1" parent="1">
          <mxGeometry x="870" y="605" width="80" height="20" as="geometry" />
        </mxCell>
        <mxCell id="PKVaJ8mTQ42ZdOeIIyP1-99" value="&lt;font style=&quot;font-size: 14px;&quot;&gt;&amp;lt;&amp;lt;include&amp;gt;&amp;gt;&lt;/font&gt;" style="text;html=1;align=center;verticalAlign=middle;whiteSpace=wrap;rounded=0;rotation=0;" vertex="1" parent="1">
          <mxGeometry x="860" y="750" width="80" height="20" as="geometry" />
        </mxCell>
        <mxCell id="PKVaJ8mTQ42ZdOeIIyP1-100" value="&lt;font style=&quot;font-size: 14px;&quot;&gt;&amp;lt;&amp;lt;include&amp;gt;&amp;gt;&lt;/font&gt;" style="text;html=1;align=center;verticalAlign=middle;whiteSpace=wrap;rounded=0;rotation=0;" vertex="1" parent="1">
          <mxGeometry x="860" y="900" width="80" height="20" as="geometry" />
        </mxCell>
        <mxCell id="PKVaJ8mTQ42ZdOeIIyP1-101" value="&lt;font style=&quot;font-size: 14px;&quot;&gt;&amp;lt;&amp;lt;include&amp;gt;&amp;gt;&lt;/font&gt;" style="text;html=1;align=center;verticalAlign=middle;whiteSpace=wrap;rounded=0;rotation=0;" vertex="1" parent="1">
          <mxGeometry x="770" y="1040" width="80" height="20" as="geometry" />
        </mxCell>
        <mxCell id="PKVaJ8mTQ42ZdOeIIyP1-102" value="&lt;font style=&quot;font-size: 14px;&quot;&gt;&amp;lt;&amp;lt;include&amp;gt;&amp;gt;&lt;/font&gt;" style="text;html=1;align=center;verticalAlign=middle;whiteSpace=wrap;rounded=0;rotation=0;" vertex="1" parent="1">
          <mxGeometry x="720" y="1140" width="80" height="20" as="geometry" />
        </mxCell>
        <mxCell id="PKVaJ8mTQ42ZdOeIIyP1-103" value="&lt;font style=&quot;font-size: 14px;&quot;&gt;&amp;lt;&amp;lt;include&amp;gt;&amp;gt;&lt;/font&gt;" style="text;html=1;align=center;verticalAlign=middle;whiteSpace=wrap;rounded=0;rotation=0;" vertex="1" parent="1">
          <mxGeometry x="737" y="1330" width="80" height="20" as="geometry" />
        </mxCell>
        <mxCell id="PKVaJ8mTQ42ZdOeIIyP1-104" value="&lt;font style=&quot;font-size: 14px;&quot;&gt;&amp;lt;&amp;lt;include&amp;gt;&amp;gt;&lt;/font&gt;" style="text;html=1;align=center;verticalAlign=middle;whiteSpace=wrap;rounded=0;rotation=0;" vertex="1" parent="1">
          <mxGeometry x="860" y="1510" width="80" height="20" as="geometry" />
        </mxCell>
        <mxCell id="PKVaJ8mTQ42ZdOeIIyP1-105" value="&lt;font style=&quot;font-size: 14px;&quot;&gt;&amp;lt;&amp;lt;include&amp;gt;&amp;gt;&lt;/font&gt;" style="text;html=1;align=center;verticalAlign=middle;whiteSpace=wrap;rounded=0;rotation=0;" vertex="1" parent="1">
          <mxGeometry x="920" y="1630" width="80" height="20" as="geometry" />
        </mxCell>
        <mxCell id="PKVaJ8mTQ42ZdOeIIyP1-106" value="&lt;font style=&quot;font-size: 14px;&quot;&gt;&amp;lt;&amp;lt;include&amp;gt;&amp;gt;&lt;/font&gt;" style="text;html=1;align=center;verticalAlign=middle;whiteSpace=wrap;rounded=0;rotation=0;" vertex="1" parent="1">
          <mxGeometry x="940" y="1820" width="80" height="20" as="geometry" />
        </mxCell>
        <mxCell id="PKVaJ8mTQ42ZdOeIIyP1-109" value="&lt;font style=&quot;font-size: 14px;&quot;&gt;&amp;lt;&amp;lt;include&amp;gt;&amp;gt;&lt;/font&gt;" style="text;html=1;align=center;verticalAlign=middle;whiteSpace=wrap;rounded=0;rotation=0;" vertex="1" parent="1">
          <mxGeometry x="940" y="1960" width="80" height="20" as="geometry" />
        </mxCell>
        <mxCell id="PKVaJ8mTQ42ZdOeIIyP1-110" value="&lt;font style=&quot;font-size: 14px;&quot;&gt;&amp;lt;&amp;lt;include&amp;gt;&amp;gt;&lt;/font&gt;" style="text;html=1;align=center;verticalAlign=middle;whiteSpace=wrap;rounded=0;rotation=0;" vertex="1" parent="1">
          <mxGeometry x="940" y="2120" width="80" height="20" as="geometry" />
        </mxCell>
      </root>
    </mxGraphModel>
  </diagram>
</mxfile>
